<svg width="40" height="40" viewBox="0 0 40 40" fill="none" xmlns="http://www.w3.org/2000/svg">
<path d="M30 11.9333C29.9 11.9167 29.7834 11.9167 29.6834 11.9333C27.3834 11.85 25.55 9.96665 25.55 7.63332C25.55 5.24998 27.4667 3.33331 29.85 3.33331C32.2334 3.33331 34.15 5.26665 34.15 7.63332C34.1334 9.96665 32.3 11.85 30 11.9333Z" stroke="#2979FF" stroke-width="2" stroke-linecap="round" stroke-linejoin="round"/>
<path d="M28.2834 24.0667C30.5667 24.45 33.0834 24.05 34.8501 22.8667C37.2001 21.3 37.2001 18.7333 34.8501 17.1667C33.0667 15.9833 30.5167 15.5833 28.2334 15.9833" stroke="#2979FF" stroke-width="2" stroke-linecap="round" stroke-linejoin="round"/>
<path d="M9.95005 11.9333C10.0501 11.9167 10.1667 11.9167 10.2667 11.9333C12.5667 11.85 14.4 9.96665 14.4 7.63332C14.4 5.24998 12.4834 3.33331 10.1001 3.33331C7.71672 3.33331 5.80005 5.26665 5.80005 7.63332C5.81672 9.96665 7.65005 11.85 9.95005 11.9333Z" stroke="#2979FF" stroke-width="2" stroke-linecap="round" stroke-linejoin="round"/>
<path d="M11.6667 24.0667C9.38336 24.45 6.86669 24.05 5.10002 22.8667C2.75002 21.3 2.75002 18.7333 5.10002 17.1667C6.88336 15.9833 9.43335 15.5833 11.7167 15.9833" stroke="#2979FF" stroke-width="2" stroke-linecap="round" stroke-linejoin="round"/>
<path d="M19.9999 24.3833C19.8999 24.3667 19.7833 24.3667 19.6833 24.3833C17.3833 24.3 15.5499 22.4167 15.5499 20.0833C15.5499 17.7 17.4666 15.7833 19.8499 15.7833C22.2333 15.7833 24.1499 17.7167 24.1499 20.0833C24.1333 22.4167 22.2999 24.3167 19.9999 24.3833Z" stroke="#2979FF" stroke-width="2" stroke-linecap="round" stroke-linejoin="round"/>
<path d="M15.15 29.6333C12.8 31.2 12.8 33.7666 15.15 35.3333C17.8166 37.1166 22.1833 37.1166 24.85 35.3333C27.2 33.7666 27.2 31.2 24.85 29.6333C22.2 27.8667 17.8166 27.8667 15.15 29.6333Z" stroke="#2979FF" stroke-width="2" stroke-linecap="round" stroke-linejoin="round"/>
</svg>
