<svg width="40" height="40" viewBox="0 0 40 40" fill="none" xmlns="http://www.w3.org/2000/svg">
<path d="M20 20C24.6023 20 28.3333 16.269 28.3333 11.6666C28.3333 7.06427 24.6023 3.33331 20 3.33331C15.3976 3.33331 11.6666 7.06427 11.6666 11.6666C11.6666 16.269 15.3976 20 20 20Z" stroke="#2979FF" stroke-width="2" stroke-linecap="round" stroke-linejoin="round"/>
<path d="M32.0166 26.2334L26.1165 32.1334C25.8832 32.3668 25.6666 32.8 25.6166 33.1167L25.2999 35.3667C25.1832 36.1833 25.7499 36.75 26.5666 36.6334L28.8165 36.3167C29.1332 36.2667 29.5832 36.05 29.7999 35.8167L35.6999 29.9167C36.7165 28.9001 37.1999 27.7167 35.6999 26.2167C34.2165 24.7333 33.0333 25.2167 32.0166 26.2334Z" stroke="#2979FF" stroke-width="2" stroke-miterlimit="10" stroke-linecap="round" stroke-linejoin="round"/>
<path d="M31.1666 27.0833C31.6666 28.8833 33.0666 30.2833 34.8666 30.7833" stroke="#2979FF" stroke-width="2" stroke-miterlimit="10" stroke-linecap="round" stroke-linejoin="round"/>
<path d="M5.68335 36.6667C5.68335 30.2167 12.1001 25 20.0001 25C21.7334 25 23.4 25.25 24.95 25.7167" stroke="#2979FF" stroke-width="2" stroke-linecap="round" stroke-linejoin="round"/>
</svg>
