<svg width="40" height="40" viewBox="0 0 40 40" fill="none" xmlns="http://www.w3.org/2000/svg">
<path d="M14.4531 23.8831C14.4531 26.0331 16.1031 27.7664 18.1531 27.7664H22.3365C24.1198 27.7664 25.5698 26.2498 25.5698 24.3831C25.5698 22.3498 24.6865 21.6331 23.3698 21.1664L16.6531 18.8331C15.3365 18.3664 14.4531 17.6498 14.4531 15.6164C14.4531 13.7498 15.9031 12.2331 17.6865 12.2331H21.8698C23.9198 12.2331 25.5698 13.9664 25.5698 16.1164" stroke="#2979FF" stroke-width="2" stroke-linecap="round" stroke-linejoin="round"/>
<path d="M20 10V30" stroke="#2979FF" stroke-width="2" stroke-linecap="round" stroke-linejoin="round"/>
<path d="M25 36.6666H15C6.66671 36.6666 3.33337 33.3333 3.33337 25V15C3.33337 6.66665 6.66671 3.33331 15 3.33331H25C33.3334 3.33331 36.6667 6.66665 36.6667 15V25C36.6667 33.3333 33.3334 36.6666 25 36.6666Z" stroke="#2979FF" stroke-width="2" stroke-linecap="round" stroke-linejoin="round"/>
</svg>
