<svg width="24" height="24" viewBox="0 0 24 24" fill="none" xmlns="http://www.w3.org/2000/svg">
<path d="M12.0002 2.12731C15.1537 2.12731 15.5238 2.14137 16.7702 2.19759C17.9229 2.24913 18.5461 2.44125 18.9631 2.60525C19.5161 2.82079 19.9097 3.07382 20.322 3.48616C20.7343 3.8985 20.992 4.29211 21.2029 4.84501C21.3622 5.26206 21.559 5.88523 21.6106 7.03794C21.6668 8.28433 21.6808 8.65448 21.6808 11.808C21.6808 14.9614 21.6668 15.3316 21.6106 16.578C21.559 17.7307 21.3669 18.3539 21.2029 18.7709C20.9874 19.3238 20.7343 19.7174 20.322 20.1298C19.9097 20.5421 19.5161 20.7998 18.9631 21.0107C18.5461 21.17 17.9229 21.3668 16.7702 21.4184C15.5238 21.4746 15.1537 21.4886 12.0002 21.4886C8.8467 21.4886 8.47654 21.4746 7.23016 21.4184C6.07745 21.3668 5.45428 21.1747 5.03723 21.0107C4.48432 20.7951 4.09072 20.5421 3.67838 20.1298C3.26603 19.7174 3.00832 19.3238 2.79746 18.7709C2.63815 18.3539 2.44135 17.7307 2.38981 16.578C2.33358 15.3316 2.31952 14.9614 2.31952 11.808C2.31952 8.65448 2.33358 8.28433 2.38981 7.03794C2.44135 5.88523 2.63347 5.26206 2.79746 4.84501C3.01301 4.29211 3.26603 3.8985 3.67838 3.48616C4.09072 3.07382 4.48432 2.81611 5.03723 2.60525C5.45428 2.44593 6.07745 2.24913 7.23016 2.19759C8.47654 2.13668 8.85138 2.12731 12.0002 2.12731ZM12.0002 0C8.79515 0 8.39219 0.0140571 7.13176 0.0702854C5.87597 0.126514 5.0185 0.327999 4.26879 0.618511C3.49095 0.918397 2.83495 1.32605 2.17895 1.98205C1.52295 2.63805 1.11998 3.29873 0.815411 4.07186C0.524897 4.8216 0.323413 5.67907 0.267185 6.93954C0.210956 8.19529 0.196899 8.59826 0.196899 11.8033C0.196899 15.0083 0.210956 15.4113 0.267185 16.6717C0.323413 17.9275 0.524897 18.785 0.815411 19.5394C1.1153 20.3172 1.52295 20.9732 2.17895 21.6292C2.83495 22.2852 3.49563 22.6881 4.26879 22.9928C5.0185 23.2832 5.87597 23.4848 7.13644 23.541C8.39687 23.5972 8.79515 23.6112 12.0049 23.6112C15.2146 23.6112 15.6128 23.5972 16.8733 23.541C18.1291 23.4848 18.9866 23.2832 19.741 22.9928C20.5188 22.6929 21.1748 22.2852 21.8308 21.6292C22.4868 20.9732 22.8898 20.3125 23.1943 19.5394C23.4848 18.7896 23.6863 17.9322 23.7425 16.6717C23.7988 15.4113 23.8129 15.013 23.8129 11.8033C23.8129 8.59357 23.7988 8.19529 23.7425 6.93482C23.6863 5.67907 23.4848 4.8216 23.1943 4.06717C22.8944 3.28936 22.4868 2.63336 21.8308 1.97736C21.1748 1.32137 20.5141 0.918397 19.741 0.613826C18.9913 0.323313 18.1338 0.121828 16.8733 0.0655999C15.6082 0.0140571 15.2052 0 12.0002 0Z" fill="#757575"/>
<path d="M12.0001 5.74414C8.65447 5.74414 5.93677 8.45716 5.93677 11.8074C5.93677 15.1577 8.64979 17.8708 12.0001 17.8708C15.3504 17.8708 18.0634 15.1577 18.0634 11.8074C18.0634 8.45716 15.3504 5.74414 12.0001 5.74414ZM12.0001 15.7388C9.82591 15.7388 8.06407 13.9769 8.06407 11.8028C8.06407 9.6286 9.82591 7.86676 12.0001 7.86676C14.1742 7.86676 15.9361 9.6286 15.9361 11.8028C15.9361 13.9769 14.1742 15.7388 12.0001 15.7388Z" fill="#757575"/>
<path d="M18.3018 6.91584C19.0833 6.91584 19.7169 6.28228 19.7169 5.50075C19.7169 4.71925 19.0833 4.08569 18.3018 4.08569C17.5203 4.08569 16.8867 4.71925 16.8867 5.50075C16.8867 6.28228 17.5203 6.91584 18.3018 6.91584Z" fill="#757575"/>
</svg>
