<svg width="24" height="24" viewBox="0 0 24 24" fill="none" xmlns="http://www.w3.org/2000/svg">
<path d="M20.9081 7.18115C20.9171 7.39235 20.9171 7.59395 20.9171 7.80515C20.9263 14.2084 16.2989 21.6004 7.83671 21.6004C5.34087 21.6004 2.89054 20.842 0.786377 19.4212C1.15074 19.4692 1.51509 19.4884 1.87945 19.4884C3.94718 19.4884 5.96027 18.7588 7.59077 17.4052C5.62324 17.3668 3.89253 16.0132 3.29134 14.0356C3.98361 14.1796 4.69413 14.1508 5.36817 13.9492C3.22757 13.5076 1.68816 11.5204 1.67906 9.20675C1.67906 9.18755 1.67906 9.16835 1.67906 9.14915C2.31668 9.52355 3.03629 9.73475 3.765 9.75395C1.75192 8.33315 1.12341 5.50115 2.34401 3.28353C4.685 6.31715 8.12817 8.15075 11.8264 8.35235C11.453 6.67235 11.9631 4.90595 13.1563 3.71554C15.0054 1.88193 17.9203 1.97793 19.6692 3.92674C20.6985 3.71554 21.6914 3.31233 22.5932 2.74593C22.2471 3.86914 21.5275 4.81955 20.571 5.42435C21.4819 5.30915 22.3746 5.04995 23.2126 4.66595C22.5932 5.64515 21.8098 6.48995 20.9081 7.18115Z" fill="#757575"/>
</svg>
