<svg width="183" height="48" viewBox="0 0 183 48" fill="none" xmlns="http://www.w3.org/2000/svg">
<path d="M49.3957 47.9518C43.7656 47.9518 38.1354 47.9543 32.5053 47.9492C32.0833 47.9492 31.6436 47.9721 31.2471 47.8602C30.2659 47.5832 29.9482 46.6427 30.5506 45.8675C33.4813 42.1056 36.4146 38.3437 39.3657 34.5995C40.4053 33.2803 41.8007 32.7491 43.4809 32.7542C50.5065 32.7796 57.5346 32.7872 64.5603 32.7516C69.3948 32.7262 73.1084 29.5286 73.721 24.9635C74.4327 19.679 70.2133 15.002 64.6238 14.9156C62.6361 14.8851 60.6458 14.9156 58.6556 14.9436C57.7736 14.9563 57.1076 14.7021 56.7035 13.843C56.3247 13.0372 56.6984 12.4678 57.1534 11.8858C59.7562 8.55852 62.3819 5.24906 64.9492 1.89384C66.3675 0.0408506 68.3222 0.137433 70.2641 0.345863C80.345 1.42614 88.3568 9.4024 89.7066 19.4579C90.4996 25.3549 89.8591 30.9495 86.5852 36.0103C81.8599 43.3104 75.0555 47.3494 66.4056 47.8399C60.7526 48.1602 55.064 47.9009 49.3932 47.9009C49.3957 47.9162 49.3957 47.934 49.3957 47.9518Z" fill="#2979FF"/>
<path d="M33.5627 0.0128768C40.3774 0.0128768 47.1945 0.0128768 54.0092 0.0128768C54.3472 0.0128768 54.6904 -0.0125394 55.0234 0.0230462C56.5383 0.183181 57.1306 1.40581 56.2257 2.64113C53.483 6.38016 50.715 10.0988 47.924 13.8023C46.9734 15.0605 45.6339 15.64 44.0605 15.6553C42.876 15.6655 41.6889 15.6502 40.5045 15.6553C37.7135 15.6655 36.3689 16.9948 36.3613 19.7552C36.3536 21.8726 36.3587 23.9874 36.3587 26.1047C36.3613 27.7239 35.891 29.1956 34.8946 30.4691C31.4174 34.9096 27.9249 39.3375 24.4401 43.7705C24.0766 44.2331 23.7538 44.7287 23.3776 45.1786C22.9557 45.6844 22.3863 45.8319 21.7737 45.6234C21.1611 45.415 20.8053 44.9575 20.7697 44.2941C20.7519 43.956 20.7595 43.6179 20.7595 43.2773C20.757 35.4892 20.7163 27.701 20.7773 19.9129C20.7951 17.4447 19.7987 15.64 16.4511 15.6451C11.6674 15.6527 6.8837 15.6375 2.09998 15.6502C1.30184 15.6527 0.562169 15.5943 0.16056 14.7682C-0.241049 13.9446 0.180894 13.3295 0.656215 12.6941C3.26159 9.21684 5.87713 5.74978 8.42404 2.2319C9.54499 0.683922 10.9405 -0.0125384 12.857 0.00017072C19.7555 0.0484654 26.6566 0.0205019 33.5576 0.0205019C33.5627 0.0154183 33.5627 0.0154186 33.5627 0.0128768Z" fill="#18528C"/>
<path d="M98.0261 17.2923V10.5742H124.715V17.2923H115.478V41.282H107.261V17.2923H98.0261Z" fill="#18528C"/>
<path d="M136.41 41.7624C134.211 41.7624 132.315 41.3736 130.727 40.5932C129.138 39.8129 127.918 38.7682 127.069 37.4591C126.22 36.1501 125.795 34.7063 125.795 33.1253C125.795 31.9764 126.014 30.9597 126.454 30.0751C126.893 29.1906 127.509 28.3797 128.299 27.6375C129.09 26.8978 130.012 26.1683 131.072 25.449L138.029 21.1304C138.728 20.6907 139.204 20.2332 139.453 19.7578C139.702 19.2825 139.826 18.8606 139.826 18.492C139.826 18.0014 139.646 17.5668 139.287 17.1881C138.926 16.8093 138.367 16.6238 137.607 16.6339C137.137 16.6339 136.733 16.7204 136.392 16.8957C136.052 17.0711 135.79 17.3126 135.604 17.6227C135.419 17.9328 135.327 18.3014 135.327 18.7335C135.327 19.3232 135.498 19.9256 135.838 20.5407C136.179 21.1559 136.644 21.8167 137.234 22.5284C137.823 23.2376 138.489 24.0332 139.229 24.9127L154.104 41.2871H145.828L133.352 28.0925C132.742 27.4418 132.069 26.6462 131.329 25.7006C130.589 24.7551 129.951 23.6901 129.418 22.5005C128.884 21.3109 128.614 20.0171 128.614 18.6166C128.614 17.0584 128.99 15.6325 129.74 14.3438C130.49 13.055 131.54 12.0256 132.89 11.2554C134.239 10.4853 135.813 10.1014 137.612 10.1014C139.331 10.1014 140.813 10.4573 142.058 11.1665C143.304 11.8756 144.262 12.8212 144.938 14.0006C145.611 15.18 145.95 16.4789 145.95 17.8998C145.95 19.3283 145.596 20.6627 144.892 21.9031C144.188 23.1436 143.182 24.2264 141.872 25.1567L135.515 29.6557C135.025 29.9963 134.603 30.3852 134.25 30.825C133.894 31.2647 133.716 31.8341 133.716 32.5331C133.716 33.1126 133.85 33.6083 134.12 34.0175C134.389 34.4267 134.773 34.7419 135.266 34.9631C135.762 35.1842 136.344 35.2935 137.012 35.2935C138.032 35.2935 139.054 35.0469 140.078 34.5513C141.102 34.0556 142.04 33.3617 142.889 32.467C143.738 31.5723 144.422 30.5123 144.935 29.2872C145.449 28.062 145.708 26.725 145.708 25.2762H152.246C152.246 27.0554 152.06 28.7712 151.692 30.4183C151.32 32.0679 150.728 33.5778 149.907 34.9478C149.086 36.3179 148.008 37.4718 146.669 38.4123C146.249 38.6233 145.84 38.8216 145.439 39.0122C145.04 39.2028 144.628 39.4011 144.208 39.6121C142.978 40.4026 141.695 40.9592 140.355 41.2846C139.015 41.6099 137.699 41.7624 136.41 41.7624Z" fill="#18528C"/>
<path d="M167.657 41.2845H155.843V10.5767H167.537C170.697 10.5767 173.427 11.1893 175.732 12.4144C178.035 13.6396 179.815 15.3985 181.07 17.6912C182.323 19.9865 182.951 22.7317 182.951 25.9293C182.951 29.1269 182.326 31.8746 181.078 34.1699C179.83 36.4652 178.058 38.2241 175.77 39.4467C173.48 40.6719 170.776 41.2845 167.657 41.2845ZM164.18 34.2055H167.36C168.88 34.2055 170.176 33.9615 171.251 33.4709C172.326 32.9803 173.145 32.1365 173.709 30.9367C174.273 29.737 174.555 28.067 174.555 25.9293C174.555 23.7891 174.268 22.1216 173.694 20.9219C173.119 19.7222 172.278 18.8783 171.175 18.3877C170.069 17.8971 168.717 17.6531 167.118 17.6531H164.18V34.2055Z" fill="#18528C"/>
</svg>
